<?xml version="1.0" encoding="utf-8"?>
<!-- Generator: Adobe Illustrator 19.0.0, SVG Export Plug-In . SVG Version: 6.00 Build 0)  -->
<svg version="1.1" id="Layer_1" xmlns="http://www.w3.org/2000/svg" xmlns:xlink="http://www.w3.org/1999/xlink" x="0px" y="0px"
	 viewBox="-152 156.2 194.9 189.8" style="enable-background:new -152 156.2 194.9 189.8;" xml:space="preserve">
<style type="text/css">
	.st0{fill:url(#SVGID_1_);}
	.st1{fill:#0A697A;}
	.st2{fill:url(#SVGID_2_);}
	.st3{fill:#057587;}
	.st4{fill:url(#SVGID_3_);}
	.st5{fill:url(#SVGID_4_);}
	.st6{fill:url(#SVGID_5_);}
	.st7{fill:#0A8195;}
	.st8{fill:url(#SVGID_6_);}
	.st9{fill:url(#SVGID_7_);}
	.st10{opacity:0.25;fill:url(#SVGID_8_);enable-background:new    ;}
	.st11{fill:url(#SVGID_9_);}
	.st12{fill:url(#SVGID_10_);}
	.st13{fill:url(#SVGID_11_);}
	.st14{fill:url(#SVGID_12_);}
	.st15{fill:url(#SVGID_13_);}
	.st16{fill:url(#SVGID_14_);}
	.st17{fill:url(#SVGID_15_);}
	.st18{fill:url(#SVGID_16_);}
	.st19{fill:url(#SVGID_17_);}
	.st20{fill:url(#SVGID_18_);}
	.st21{opacity:0.2;fill:url(#SVGID_19_);enable-background:new    ;}
	.st22{fill:url(#SVGID_20_);}
	.st23{fill:url(#SVGID_21_);}
	.st24{opacity:0.2;fill:url(#SVGID_22_);enable-background:new    ;}
	.st25{opacity:0.4;fill:url(#SVGID_23_);enable-background:new    ;}
</style>
<g>
	
		<linearGradient id="SVGID_1_" gradientUnits="userSpaceOnUse" x1="-1273.9688" y1="64.8832" x2="-1293.9218" y2="24.7702" gradientTransform="matrix(0.9258 -0.3779 0.3779 0.9258 1092.209 -345.1008)">
		<stop  offset="0" style="stop-color:#0D283A"/>
		<stop  offset="2.800000e-002" style="stop-color:#0C3042"/>
		<stop  offset="0.135" style="stop-color:#0B495A"/>
		<stop  offset="0.247" style="stop-color:#0A5B6C"/>
		<stop  offset="0.365" style="stop-color:#0A6676"/>
		<stop  offset="0.5" style="stop-color:#0A697A"/>
		<stop  offset="0.618" style="stop-color:#0A6070"/>
		<stop  offset="0.813" style="stop-color:#0B4758"/>
		<stop  offset="1" style="stop-color:#0D283A"/>
	</linearGradient>
	<path class="st0" d="M-79.8,208.8c8.5-12.4,17.1-23.2,25-31.7c-14.5-15.7-26.8-23.7-32.8-20.1c-2.9,1.8-6,6.7-5.6,13
		c0.3,4.8,2.6,11.4,4.6,18.3C-86.6,194.9-83.1,201-79.8,208.8L-79.8,208.8z"/>
	<path class="st1" d="M-7.7,336.5l21.1-12.8L-7.7,336.5"/>
	
		<linearGradient id="SVGID_2_" gradientUnits="userSpaceOnUse" x1="-1253.0017" y1="212.0034" x2="-1263.3397" y2="147.0454" gradientTransform="matrix(0.9258 -0.3779 0.3779 0.9258 1092.209 -345.1008)">
		<stop  offset="0" style="stop-color:#0D283A"/>
		<stop  offset="2.800000e-002" style="stop-color:#0C3042"/>
		<stop  offset="0.135" style="stop-color:#0B495A"/>
		<stop  offset="0.247" style="stop-color:#0A5B6C"/>
		<stop  offset="0.365" style="stop-color:#0A6676"/>
		<stop  offset="0.5" style="stop-color:#0A697A"/>
		<stop  offset="0.618" style="stop-color:#0A6070"/>
		<stop  offset="0.813" style="stop-color:#0B4758"/>
		<stop  offset="1" style="stop-color:#0D283A"/>
	</linearGradient>
	<path class="st2" d="M13.4,323.7c5.6-3.4,4.8-16.2-1.1-34c-3,0.7-6.2,0-9.6,0.6c-4.9,0.9-10.5,1.4-16,2.1
		c-4.5,0.5-8.7,2.4-13.6,2.8C-9.3,316.3,6.3,328,13.4,323.7L13.4,323.7z"/>
	<path class="st3" d="M-94.3,341.1l-28.7-17.4"/>
	
		<linearGradient id="SVGID_3_" gradientUnits="userSpaceOnUse" x1="-1313.0903" y1="477.6858" x2="-1213.7034" y2="643.5308" gradientTransform="matrix(1 0 0 1 1207.717 -311.493)">
		<stop  offset="0" style="stop-color:#0D283A"/>
		<stop  offset="6.000000e-003" style="stop-color:#0C2B3D"/>
		<stop  offset="5.600001e-002" style="stop-color:#0B4253"/>
		<stop  offset="0.114" style="stop-color:#0B5464"/>
		<stop  offset="0.184" style="stop-color:#0A6071"/>
		<stop  offset="0.278" style="stop-color:#0A6778"/>
		<stop  offset="0.5" style="stop-color:#0A697A"/>
		<stop  offset="0.722" style="stop-color:#0A6778"/>
		<stop  offset="0.816" style="stop-color:#0A6071"/>
		<stop  offset="0.886" style="stop-color:#0B5464"/>
		<stop  offset="0.944" style="stop-color:#0B4253"/>
		<stop  offset="0.994" style="stop-color:#0C2B3D"/>
		<stop  offset="1" style="stop-color:#0D283A"/>
	</linearGradient>
	<path class="st4" d="M-54.7,248.4c-1.6,0-3.2,0.1-4.7,0.1c0.7,1.2-0.6,3.6,0.2,4.9c0.5,0.8,3.5,1.2,4,2h0.6c0.2,0,0.6,0,0.8,0
		c0.5-0.8,0.8-2.1,1.3-2.9c0.8-1.3,1.7-2.8,2.4-4.1C-51.6,248.4-53.3,248.4-54.7,248.4L-54.7,248.4z"/>
	
		<linearGradient id="SVGID_4_" gradientUnits="userSpaceOnUse" x1="-1328.0078" y1="633.2985" x2="-1226.4988" y2="468.6095" gradientTransform="matrix(1 0 0 1 1207.717 -311.493)">
		<stop  offset="0" style="stop-color:#014251"/>
		<stop  offset="8.600000e-002" style="stop-color:#025262"/>
		<stop  offset="0.227" style="stop-color:#046676"/>
		<stop  offset="0.366" style="stop-color:#057183"/>
		<stop  offset="0.5" style="stop-color:#057587"/>
		<stop  offset="0.634" style="stop-color:#057183"/>
		<stop  offset="0.773" style="stop-color:#046676"/>
		<stop  offset="0.914" style="stop-color:#025262"/>
		<stop  offset="1" style="stop-color:#014251"/>
	</linearGradient>
	<path class="st5" d="M-82.8,295.3c-4.9-0.3-9.6-3.2-14.1-3.7c-5-0.6-9.7-1.2-14.1-2c-3.9-0.6-7.5,1-10.9,0.3
		c-5.8,17.7-6.6,30.4-1,33.8C-115.9,328-100.4,316.3-82.8,295.3L-82.8,295.3z"/>
	<path class="st3" d="M-0.9,169.8l-21-12.8L-0.9,169.8"/>
	
		<linearGradient id="SVGID_5_" gradientUnits="userSpaceOnUse" x1="-1245.1754" y1="33.8099" x2="-1267.1895" y2="86.0649" gradientTransform="matrix(0.9258 -0.3779 0.3779 0.9258 1092.209 -345.1008)">
		<stop  offset="0" style="stop-color:#014251"/>
		<stop  offset="0.5" style="stop-color:#057587"/>
		<stop  offset="0.693" style="stop-color:#057384"/>
		<stop  offset="0.804" style="stop-color:#056B7C"/>
		<stop  offset="0.893" style="stop-color:#035E6E"/>
		<stop  offset="0.971" style="stop-color:#024B5B"/>
		<stop  offset="1" style="stop-color:#014251"/>
	</linearGradient>
	<path class="st6" d="M-79.4,209.7c7.9-0.5,16.1-0.7,24.7-0.8c8.5,0,16.6,0.2,24.5,0.7c3.9-9.1,8.7-15.4,10.7-22.8
		c2.2-7.9,3.2-15.3,2.8-20.2c-0.3-4-3.1-8.2-5.3-9.6c-6.1-3.7-18.3,4.4-32.8,20c-7.9,8.5-16.4,19.3-25,31.7
		C-79.7,208.9-79.4,209.5-79.4,209.7L-79.4,209.7z"/>
	<path class="st7" d="M42.8,256l-0.1-24.6L42.8,256"/>
	
		<linearGradient id="SVGID_6_" gradientUnits="userSpaceOnUse" x1="-1353.2574" y1="84.7522" x2="-1321.9335" y2="18.2482" gradientTransform="matrix(0.9258 -0.3779 0.3779 0.9258 1092.209 -345.1008)">
		<stop  offset="0" style="stop-color:#0B5463"/>
		<stop  offset="7.000000e-002" style="stop-color:#0B6070"/>
		<stop  offset="0.216" style="stop-color:#0B7285"/>
		<stop  offset="0.361" style="stop-color:#0A7D91"/>
		<stop  offset="0.5" style="stop-color:#0A8195"/>
		<stop  offset="0.639" style="stop-color:#0A7D91"/>
		<stop  offset="0.783" style="stop-color:#0B7285"/>
		<stop  offset="0.93" style="stop-color:#0B6070"/>
		<stop  offset="1" style="stop-color:#0B5463"/>
	</linearGradient>
	<path class="st8" d="M-104.9,251.7c-3.9-7.5-5.1-15.6-8-22.4c-2.3-5.4-6.5-9.6-8.2-14.5c-19.1,4.3-31,10.4-31,17.1
		c0,2.3,0.8,5.4,3.3,7.4c4.5,3.6,13.4,7,24.2,9.6C-118.7,250.3-113.8,251-104.9,251.7z"/>
	
		<linearGradient id="SVGID_7_" gradientUnits="userSpaceOnUse" x1="-1219.9138" y1="147.5533" x2="-1188.5929" y2="81.0533" gradientTransform="matrix(0.9258 -0.3779 0.3779 0.9258 1092.209 -345.1008)">
		<stop  offset="0" style="stop-color:#0B5463"/>
		<stop  offset="7.000000e-002" style="stop-color:#0B6070"/>
		<stop  offset="0.216" style="stop-color:#0B7285"/>
		<stop  offset="0.361" style="stop-color:#0A7D91"/>
		<stop  offset="0.5" style="stop-color:#0A8195"/>
		<stop  offset="0.639" style="stop-color:#0A7D91"/>
		<stop  offset="0.783" style="stop-color:#0B7285"/>
		<stop  offset="0.93" style="stop-color:#0B6070"/>
		<stop  offset="1" style="stop-color:#0B5463"/>
	</linearGradient>
	<path class="st9" d="M-4.6,251.5c2.7-0.4,5.6,1.2,8,0.7c4.7-0.8,10.4-1.6,14.4-2.6c16.5-4.2,25-12,25-18.2c0-6.7-12-12.7-31.1-16.9
		C7.9,225.3,2.4,238-4.6,251.5L-4.6,251.5z"/>
	
		<linearGradient id="SVGID_8_" gradientUnits="userSpaceOnUse" x1="-1359.046" y1="538.7507" x2="-1166.168" y2="538.7507" gradientTransform="matrix(1 0 0 1 1207.717 -311.493)">
		<stop  offset="0" style="stop-color:#0B5463"/>
		<stop  offset="1" style="stop-color:#0B5463"/>
	</linearGradient>
	<path class="st10" d="M-79.5,207.9c2.7,6.3,3.7,13.9,7.2,20.8c3.3,6.4,7.7,13.2,13.1,18.7c1.5,0,3.1,0,4.6,0c1.4,0,2.8,0,4.2,0
		c8.2-13.9,15.1-27.4,20.4-39.6c-7.9-0.5-16.2-0.7-24.7-0.7C-63.2,207-71.5,207.3-79.5,207.9L-79.5,207.9z"/>
	
		<linearGradient id="SVGID_9_" gradientUnits="userSpaceOnUse" x1="-1288.2672" y1="115.3614" x2="-1256.9452" y2="48.8585" gradientTransform="matrix(0.9258 -0.3779 0.3779 0.9258 1092.209 -345.1008)">
		<stop  offset="0" style="stop-color:#0B5463"/>
		<stop  offset="7.000000e-002" style="stop-color:#0B6070"/>
		<stop  offset="0.216" style="stop-color:#0B7285"/>
		<stop  offset="0.361" style="stop-color:#0A7D91"/>
		<stop  offset="0.5" style="stop-color:#0A8195"/>
		<stop  offset="0.639" style="stop-color:#0A7D91"/>
		<stop  offset="0.783" style="stop-color:#0B7285"/>
		<stop  offset="0.93" style="stop-color:#0B6070"/>
		<stop  offset="1" style="stop-color:#0B5463"/>
	</linearGradient>
	<path class="st11" d="M-79.6,209.2c2.7,6.3,3.7,13.9,7.2,20.8c3.3,6.4,7.7,13.2,13.1,18.7c1.5,0,3.1,0,4.6,0c1.4,0,2.8,0,4.2,0
		c8.2-13.9,15.1-27.4,20.4-39.6c-7.9-0.5-16.2-0.7-24.7-0.7C-63.3,208.4-71.6,208.7-79.6,209.2L-79.6,209.2z"/>
	
		<linearGradient id="SVGID_10_" gradientUnits="userSpaceOnUse" x1="-1220.6351" y1="646.9772" x2="-1320.9102" y2="480.8492" gradientTransform="matrix(1 0 0 1 1207.717 -311.493)">
		<stop  offset="0" style="stop-color:#096F80"/>
		<stop  offset="3.700000e-002" style="stop-color:#107A8A"/>
		<stop  offset="0.155" style="stop-color:#2497A5"/>
		<stop  offset="0.273" style="stop-color:#32ABB8"/>
		<stop  offset="0.388" style="stop-color:#3BB8C4"/>
		<stop  offset="0.5" style="stop-color:#3EBCC8"/>
		<stop  offset="0.612" style="stop-color:#3BB8C4"/>
		<stop  offset="0.728" style="stop-color:#32ABB8"/>
		<stop  offset="0.845" style="stop-color:#2497A5"/>
		<stop  offset="0.963" style="stop-color:#107A8A"/>
		<stop  offset="1" style="stop-color:#096F80"/>
	</linearGradient>
	<path class="st12" d="M-25.9,294.6c-0.7,0.1-1.5-1.1-2.3-1c-0.7,0.1-1.4,1.3-2.2,1.3c-8,11.6-16,21.6-23.4,29.6
		c14.5,15.7,26.8,23.7,32.8,20l14.3-8.7L14,323.3C6.8,327.7-8.3,315.8-25.9,294.6L-25.9,294.6z"/>
	
		<linearGradient id="SVGID_11_" gradientUnits="userSpaceOnUse" x1="-1275.7124" y1="215.8162" x2="-1295.1544" y2="176.9312" gradientTransform="matrix(0.9258 -0.3779 0.3779 0.9258 1092.209 -345.1008)">
		<stop  offset="0" style="stop-color:#096F80"/>
		<stop  offset="6.000000e-003" style="stop-color:#097181"/>
		<stop  offset="9.099999e-002" style="stop-color:#0B8395"/>
		<stop  offset="0.188" style="stop-color:#0C8FA4"/>
		<stop  offset="0.305" style="stop-color:#0D97AC"/>
		<stop  offset="0.5" style="stop-color:#0D99AF"/>
		<stop  offset="0.695" style="stop-color:#0D97AC"/>
		<stop  offset="0.812" style="stop-color:#0C8FA4"/>
		<stop  offset="0.909" style="stop-color:#0B8395"/>
		<stop  offset="0.994" style="stop-color:#097181"/>
		<stop  offset="1" style="stop-color:#096F80"/>
	</linearGradient>
	<path class="st13" d="M-26.9,295.2c-0.7,0.1-1.5-1.1-2.3-1c-0.7,0.1-1.4,1.3-2.2,1.3c-8.1,11.5-16.1,21.6-23.5,29.6
		c14.5,15.7,26.8,23.7,32.8,20.1l14.3-8.7l21.1-12.8C6.3,328-9.3,316.3-26.9,295.2L-26.9,295.2z"/>
	
		<linearGradient id="SVGID_12_" gradientUnits="userSpaceOnUse" x1="-1312.1838" y1="23.8635" x2="-1279.8088" y2="251.5465" gradientTransform="matrix(0.9258 -0.3779 0.3779 0.9258 1092.209 -345.1008)">
		<stop  offset="0" style="stop-color:#096F80"/>
		<stop  offset="8.000000e-003" style="stop-color:#097181"/>
		<stop  offset="0.175" style="stop-color:#0C8395"/>
		<stop  offset="0.341" style="stop-color:#0E8EA2"/>
		<stop  offset="0.5" style="stop-color:#0F92A6"/>
		<stop  offset="0.659" style="stop-color:#0E8EA2"/>
		<stop  offset="0.825" style="stop-color:#0C8395"/>
		<stop  offset="0.992" style="stop-color:#097181"/>
		<stop  offset="1" style="stop-color:#096F80"/>
	</linearGradient>
	<path class="st14" d="M-103.9,251c4.2,2.4,9.1,1.9,13.8,2.3c7.2,0.7,14.1,1.1,22,1.4c4.3,0.1,9.4,1,13.9,0.2
		c-0.5-0.8-1.4-2.3-1.9-3.1c-0.8-1.2-1.5-2.5-2.2-3.7c-8.2-13.9-15.1-27.3-20.3-39.5c-0.1-0.1-0.1-0.3-0.2-0.4
		c-11.5-26.8-15.6-47-8.3-51.4l-28.2,17.1l-6.7,4.1c-5.8,3.5-4.7,17.3,1.8,36.3C-116.4,225-110.8,237.6-103.9,251L-103.9,251z"/>
	
		<linearGradient id="SVGID_13_" gradientUnits="userSpaceOnUse" x1="-1314.3309" y1="113.0013" x2="-1306.1" y2="22.2714" gradientTransform="matrix(0.9258 -0.3779 0.3779 0.9258 1092.209 -345.1008)">
		<stop  offset="0" style="stop-color:#096F80"/>
		<stop  offset="6.000000e-003" style="stop-color:#097181"/>
		<stop  offset="9.099999e-002" style="stop-color:#0B8395"/>
		<stop  offset="0.188" style="stop-color:#0C8FA4"/>
		<stop  offset="0.305" style="stop-color:#0D97AC"/>
		<stop  offset="0.5" style="stop-color:#0D99AF"/>
		<stop  offset="0.695" style="stop-color:#0D97AC"/>
		<stop  offset="0.812" style="stop-color:#0C8FA4"/>
		<stop  offset="0.909" style="stop-color:#0B8395"/>
		<stop  offset="0.994" style="stop-color:#097181"/>
		<stop  offset="1" style="stop-color:#096F80"/>
	</linearGradient>
	<path class="st15" d="M-104.9,251.7c4.2,2.4,9.1,1.9,13.8,2.3c7.2,0.7,14.1,1.1,22,1.4c4.3,0.1,9,0.4,13.5-0.5
		c-0.5-0.8-1-1.6-1.5-2.4c-0.8-1.2-1.5-2.5-2.2-3.7c-8.2-13.9-15.1-27.3-20.3-39.5c-0.1-0.1-0.1-0.3-0.2-0.4
		c-11.5-26.8-15.2-47.3-7.8-51.7l-28.7,17.4l-6.7,4.1c-5.8,3.5-4.7,17.3,1.8,36.3C-117.4,225.7-111.9,238.3-104.9,251.7
		L-104.9,251.7z"/>
	
		<linearGradient id="SVGID_14_" gradientUnits="userSpaceOnUse" x1="-1359.4591" y1="573.9102" x2="-1166.611" y2="573.9102" gradientTransform="matrix(1 0 0 1 1207.717 -311.493)">
		<stop  offset="0" style="stop-color:#057B8F"/>
		<stop  offset="1.800000e-002" style="stop-color:#0A8093"/>
		<stop  offset="0.141" style="stop-color:#279AAD"/>
		<stop  offset="0.263" style="stop-color:#3BAEBF"/>
		<stop  offset="0.384" style="stop-color:#48B9CA"/>
		<stop  offset="0.5" style="stop-color:#4CBDCE"/>
		<stop  offset="0.616" style="stop-color:#48B9CA"/>
		<stop  offset="0.737" style="stop-color:#3BAEBF"/>
		<stop  offset="0.859" style="stop-color:#279AAD"/>
		<stop  offset="0.982" style="stop-color:#0A8093"/>
		<stop  offset="1" style="stop-color:#057B8F"/>
	</linearGradient>
	<path class="st16" d="M-54.1,253.7h-0.5c-0.3,0-0.6,0-0.9,0c-20.5,0-36.6-1.4-49.4-3.2c-28.3-4-47.2-11.4-47.2-19.8l0.1,33.5v7.8
		c0,6.6,11.6,12.5,30,16.7c10.9,2.5,24.3,4.3,39.1,5.4C-73.5,282.9-63.6,269.1-54.1,253.7L-54.1,253.7z"/>
	
		<linearGradient id="SVGID_15_" gradientUnits="userSpaceOnUse" x1="-1316.3995" y1="138.7242" x2="-1373.7986" y2="74.7412" gradientTransform="matrix(0.9258 -0.3779 0.3779 0.9258 1092.209 -345.1008)">
		<stop  offset="0" style="stop-color:#057B8F"/>
		<stop  offset="8.199999e-002" style="stop-color:#038DA1"/>
		<stop  offset="0.181" style="stop-color:#029AB0"/>
		<stop  offset="0.301" style="stop-color:#01A2B8"/>
		<stop  offset="0.5" style="stop-color:#01A4BB"/>
		<stop  offset="0.699" style="stop-color:#01A2B8"/>
		<stop  offset="0.819" style="stop-color:#029AB0"/>
		<stop  offset="0.918" style="stop-color:#038DA1"/>
		<stop  offset="1" style="stop-color:#057B8F"/>
	</linearGradient>
	<path class="st17" d="M-54.1,254.9c-0.2,0-0.3,0-0.5,0c-0.3,0-0.6,0-0.9,0c-20.5,0-36.6-1.4-49.4-3.2c-28.3-4-47.2-11.4-47.2-19.8
		l0.1,33.5v7.8c0,6.6,11.5,12.5,30,16.7c10.9,2.5,24.3,4.3,39.1,5.4C-73.5,284.1-63.6,270.4-54.1,254.9L-54.1,254.9z"/>
	
		<linearGradient id="SVGID_16_" gradientUnits="userSpaceOnUse" x1="-1166.889" y1="573.8602" x2="-1360.6431" y2="573.8602" gradientTransform="matrix(1 0 0 1 1207.717 -311.493)">
		<stop  offset="0" style="stop-color:#057B8F"/>
		<stop  offset="3.100000e-002" style="stop-color:#0E8397"/>
		<stop  offset="0.151" style="stop-color:#2B9EB1"/>
		<stop  offset="0.27" style="stop-color:#3FB2C4"/>
		<stop  offset="0.387" style="stop-color:#4CBECF"/>
		<stop  offset="0.5" style="stop-color:#50C1D3"/>
		<stop  offset="0.613" style="stop-color:#4CBECF"/>
		<stop  offset="0.73" style="stop-color:#3FB2C4"/>
		<stop  offset="0.849" style="stop-color:#2B9EB1"/>
		<stop  offset="0.969" style="stop-color:#0E8397"/>
		<stop  offset="1" style="stop-color:#057B8F"/>
	</linearGradient>
	<path class="st18" d="M42.8,230.3c0,8.5-19,16-47.4,20.1c-3.8,7.3-8,14.8-12.6,22.4c-4.6,7.6-9.4,14.9-14.1,21.6
		c1.5-0.1,3-0.2,4.4-0.3c14.8-1.1,28.2-3,39.2-5.5c18.8-4.3,30.6-10.3,30.6-17v-16.7L42.8,230.3L42.8,230.3z"/>
	
		<linearGradient id="SVGID_17_" gradientUnits="userSpaceOnUse" x1="-1201.2037" y1="172.1145" x2="-1254.5889" y2="142.4904" gradientTransform="matrix(0.9258 -0.3779 0.3779 0.9258 1092.209 -345.1008)">
		<stop  offset="0" style="stop-color:#057B8F"/>
		<stop  offset="8.199999e-002" style="stop-color:#038DA1"/>
		<stop  offset="0.181" style="stop-color:#029AB0"/>
		<stop  offset="0.301" style="stop-color:#01A2B8"/>
		<stop  offset="0.5" style="stop-color:#01A4BB"/>
		<stop  offset="0.699" style="stop-color:#01A2B8"/>
		<stop  offset="0.819" style="stop-color:#029AB0"/>
		<stop  offset="0.918" style="stop-color:#038DA1"/>
		<stop  offset="1" style="stop-color:#057B8F"/>
	</linearGradient>
	<path class="st19" d="M42.8,231.4c0,8.5-19,15.9-47.4,20.1c-3.8,7.3-8,14.8-12.6,22.4c-4.6,7.6-9.4,14.9-14.1,21.6
		c1.5-0.1,3-0.2,4.4-0.3c14.8-1.1,28.2-3,39.2-5.5c18.8-4.3,30.6-10.3,30.6-17V256L42.8,231.4L42.8,231.4z"/>
	
		<linearGradient id="SVGID_18_" gradientUnits="userSpaceOnUse" x1="-1287.4144" y1="607.3258" x2="-1250.0984" y2="545.4668" gradientTransform="matrix(1 0 0 1 1207.717 -311.493)">
		<stop  offset="0" style="stop-color:#0B879A"/>
		<stop  offset="9.099999e-002" style="stop-color:#0B7789"/>
		<stop  offset="0.23" style="stop-color:#0B6474"/>
		<stop  offset="0.367" style="stop-color:#0B5868"/>
		<stop  offset="0.5" style="stop-color:#0B5463"/>
		<stop  offset="0.633" style="stop-color:#0B5868"/>
		<stop  offset="0.77" style="stop-color:#0B6474"/>
		<stop  offset="0.909" style="stop-color:#0B7789"/>
		<stop  offset="1" style="stop-color:#0B879A"/>
	</linearGradient>
	<path class="st20" d="M-41.8,235.9c-2.4,4.5-5,9-7.7,13.5c-0.7,1.2-1.5,2.5-2.2,3.7c-0.5,0.8-1,1.6-1.5,2.4
		c-9.5,15.5-19.4,29.3-28.7,40.4l-0.6,0.7"/>
	
		<linearGradient id="SVGID_19_" gradientUnits="userSpaceOnUse" x1="-1258.7386" y1="636.8766" x2="-1211.6676" y2="558.8466" gradientTransform="matrix(1 0 0 1 1207.717 -311.493)">
		<stop  offset="0" style="stop-color:#0B5463"/>
		<stop  offset="1" style="stop-color:#0B5463"/>
	</linearGradient>
	<path class="st21" d="M-53.5,326.6c7.4-8,15.2-18.2,23.2-29.7c4.7-6.8,18.9-28.1,28.3-46.8l-3.2,0.3l-50.1,74.3L-53.5,326.6
		L-53.5,326.6z"/>
	
		<linearGradient id="SVGID_20_" gradientUnits="userSpaceOnUse" x1="-1301.9933" y1="649.093" x2="-1202.3073" y2="483.843" gradientTransform="matrix(1 0 0 1 1207.717 -311.493)">
		<stop  offset="0" style="stop-color:#0B879A"/>
		<stop  offset="8.199999e-002" style="stop-color:#379FB2"/>
		<stop  offset="0.168" style="stop-color:#5CB4C7"/>
		<stop  offset="0.253" style="stop-color:#79C5D7"/>
		<stop  offset="0.337" style="stop-color:#8DD1E3"/>
		<stop  offset="0.42" style="stop-color:#9AD8EA"/>
		<stop  offset="0.5" style="stop-color:#9EDAEC"/>
		<stop  offset="0.58" style="stop-color:#9AD8EA"/>
		<stop  offset="0.663" style="stop-color:#8DD1E3"/>
		<stop  offset="0.747" style="stop-color:#79C5D7"/>
		<stop  offset="0.833" style="stop-color:#5CB4C7"/>
		<stop  offset="0.918" style="stop-color:#379FB2"/>
		<stop  offset="1" style="stop-color:#0B879A"/>
	</linearGradient>
	<path class="st22" d="M-18.5,273.4c4.6-7.6,8.8-15.1,12.6-22.4c7-13.5,12.5-26.1,16.3-37c6.4-18.8,7.5-32.4,1.7-35.9l-14.3-8.7
		L-22.3,157c7.4,4.5,2.7,24.7-8.9,51.6c-5.3,12.2-12.2,25.7-20.4,39.6c-0.7,1.2-1.5,2.5-2.2,3.7c-0.5,0.8-1,1.6-1.5,2.4
		c-9.5,15.5-19.4,29.3-28.7,40.4c-17.6,21-31.9,33.2-39,28.9l27.5,16.9l6.7,4.1c6.1,3.7,18.3-4.4,32.8-20.1
		c7.4-8,15.4-18.1,23.5-29.6C-27.8,288.3-23.1,281-18.5,273.4L-18.5,273.4z"/>
	
		<linearGradient id="SVGID_21_" gradientUnits="userSpaceOnUse" x1="-1301.2971" y1="649.2972" x2="-1201.6141" y2="484.2712" gradientTransform="matrix(1 0 0 1 1207.717 -311.493)">
		<stop  offset="0" style="stop-color:#0B879A"/>
		<stop  offset="3.800000e-002" style="stop-color:#1694A7"/>
		<stop  offset="0.118" style="stop-color:#26A8BA"/>
		<stop  offset="0.208" style="stop-color:#32B6C8"/>
		<stop  offset="0.318" style="stop-color:#39BED1"/>
		<stop  offset="0.5" style="stop-color:#3BC1D3"/>
		<stop  offset="0.682" style="stop-color:#39BED1"/>
		<stop  offset="0.792" style="stop-color:#32B6C8"/>
		<stop  offset="0.882" style="stop-color:#26A8BA"/>
		<stop  offset="0.962" style="stop-color:#1694A7"/>
		<stop  offset="1" style="stop-color:#0B879A"/>
	</linearGradient>
	<path class="st23" d="M-54.8,325.1c7.4-8,15.4-18.1,23.5-29.6c4.7-6.7,9.5-14,14.1-21.6c4.6-7.6,8.8-15.1,12.6-22.4
		c7-13.5,12.5-26.1,16.3-37c6.4-18.8,7.5-32.4,1.7-35.9l-14.3-8.7l-21-12.8c7.4,4.5,3.6,25.1-8,52c-5.3,12.2-12.2,25.7-20.4,39.6
		c-0.7,1.2-1.5,2.5-2.2,3.7c-0.5,0.8-1,1.6-1.5,2.4c-9.5,15.5-19.4,29.3-28.7,40.4c-17.6,21-33.1,32.7-40.2,28.4l28.7,17.4l6.7,4.1
		C-81.6,348.8-69.3,340.8-54.8,325.1L-54.8,325.1z"/>
	
		<linearGradient id="SVGID_22_" gradientUnits="userSpaceOnUse" x1="-1275.8602" y1="171.9203" x2="-1296.7733" y2="163.4423" gradientTransform="matrix(0.9258 -0.3779 0.3779 0.9258 1092.209 -345.1008)">
		<stop  offset="0" style="stop-color:#0B5463"/>
		<stop  offset="1" style="stop-color:#0B5463"/>
	</linearGradient>
	<path class="st24" d="M-24.1,296.8c0,0-6.7,0.7-8.6,0.6l1.4-2c0,0,3.6-0.2,5.9-0.4L-24.1,296.8L-24.1,296.8z"/>
	
		<linearGradient id="SVGID_23_" gradientUnits="userSpaceOnUse" x1="-1291.7578" y1="70.4634" x2="-1260.9528" y2="47.3895" gradientTransform="matrix(0.9258 -0.3779 0.3779 0.9258 1092.209 -345.1008)">
		<stop  offset="0" style="stop-color:#0B5463"/>
		<stop  offset="1" style="stop-color:#0B5463"/>
	</linearGradient>
	<path class="st25" d="M-54.8,177.1l-0.8-0.9c0,0-11.8,12.8-23.9,30l0.6,1.5C-78.9,207.6-67.5,191-54.8,177.1L-54.8,177.1z"/>
</g>
</svg>
