<?xml version="1.0" encoding="utf-8"?>
<!-- Generator: Adobe Illustrator 19.0.0, SVG Export Plug-In . SVG Version: 6.00 Build 0)  -->
<svg version="1.1" id="Layer_1" xmlns="http://www.w3.org/2000/svg" xmlns:xlink="http://www.w3.org/1999/xlink" x="0px" y="0px"
	 viewBox="-14.9 298.7 194.9 189.8" style="enable-background:new -14.9 298.7 194.9 189.8;" xml:space="preserve">
<style type="text/css">
	.st0{opacity:0.4;}
	.st1{fill:url(#SVGID_1_);}
	.st2{fill:#0A697A;}
	.st3{fill:url(#SVGID_2_);}
	.st4{fill:#057587;}
	.st5{fill:url(#SVGID_3_);}
	.st6{fill:url(#SVGID_4_);}
	.st7{fill:url(#SVGID_5_);}
	.st8{fill:#0A8195;}
	.st9{fill:url(#SVGID_6_);}
	.st10{fill:url(#SVGID_7_);}
	.st11{opacity:0.25;fill:url(#SVGID_8_);enable-background:new    ;}
	.st12{fill:url(#SVGID_9_);}
	.st13{fill:url(#SVGID_10_);}
	.st14{fill:url(#SVGID_11_);}
	.st15{fill:url(#SVGID_12_);}
	.st16{fill:url(#SVGID_13_);}
	.st17{fill:url(#SVGID_14_);}
	.st18{fill:url(#SVGID_15_);}
	.st19{fill:url(#SVGID_16_);}
	.st20{fill:url(#SVGID_17_);}
	.st21{fill:url(#SVGID_18_);}
	.st22{opacity:0.2;fill:url(#SVGID_19_);enable-background:new    ;}
	.st23{fill:url(#SVGID_20_);}
	.st24{fill:url(#SVGID_21_);}
	.st25{opacity:0.2;fill:url(#SVGID_22_);enable-background:new    ;}
	.st26{opacity:0.4;fill:url(#SVGID_23_);enable-background:new    ;}
</style>
<g class="st0">
	
		<linearGradient id="SVGID_1_" gradientUnits="userSpaceOnUse" x1="-1179.1841" y1="366.4739" x2="-1199.1371" y2="406.5869" gradientTransform="matrix(0.9258 -0.3779 -0.3779 -0.9258 1304.5471 232.5176)">
		<stop  offset="0" style="stop-color:#0D283A"/>
		<stop  offset="2.800000e-002" style="stop-color:#0C3042"/>
		<stop  offset="0.135" style="stop-color:#0B495A"/>
		<stop  offset="0.247" style="stop-color:#0A5B6C"/>
		<stop  offset="0.365" style="stop-color:#0A6676"/>
		<stop  offset="0.5" style="stop-color:#0A697A"/>
		<stop  offset="0.618" style="stop-color:#0A6070"/>
		<stop  offset="0.813" style="stop-color:#0B4758"/>
		<stop  offset="1" style="stop-color:#0D283A"/>
	</linearGradient>
	<path class="st1" d="M57.3,351.3c8.5-12.4,17.1-23.2,25-31.7c-14.5-15.7-26.8-23.7-32.8-20.1c-2.9,1.8-6,6.7-5.6,13
		c0.3,4.8,2.6,11.4,4.6,18.3C50.5,337.4,54,343.5,57.3,351.3L57.3,351.3z"/>
	<path class="st2" d="M129.4,479l21.1-12.8L129.4,479"/>
	
		<linearGradient id="SVGID_2_" gradientUnits="userSpaceOnUse" x1="-1158.2236" y1="219.339" x2="-1168.5616" y2="284.297" gradientTransform="matrix(0.9258 -0.3779 -0.3779 -0.9258 1304.5471 232.5176)">
		<stop  offset="0" style="stop-color:#0D283A"/>
		<stop  offset="2.800000e-002" style="stop-color:#0C3042"/>
		<stop  offset="0.135" style="stop-color:#0B495A"/>
		<stop  offset="0.247" style="stop-color:#0A5B6C"/>
		<stop  offset="0.365" style="stop-color:#0A6676"/>
		<stop  offset="0.5" style="stop-color:#0A697A"/>
		<stop  offset="0.618" style="stop-color:#0A6070"/>
		<stop  offset="0.813" style="stop-color:#0B4758"/>
		<stop  offset="1" style="stop-color:#0D283A"/>
	</linearGradient>
	<path class="st3" d="M150.5,466.2c5.6-3.4,4.8-16.2-1.1-34c-3,0.7-6.2,0-9.6,0.6c-4.9,0.9-10.5,1.4-16,2.1
		c-4.5,0.5-8.7,2.4-13.6,2.8C127.8,458.8,143.4,470.5,150.5,466.2L150.5,466.2z"/>
	<path class="st4" d="M42.8,483.6l-28.7-17.4"/>
	
		<linearGradient id="SVGID_3_" gradientUnits="userSpaceOnUse" x1="-1176.0671" y1="-120.1847" x2="-1076.6802" y2="-286.0297" gradientTransform="matrix(1 0 0 -1 1207.717 188.507)">
		<stop  offset="0" style="stop-color:#0D283A"/>
		<stop  offset="6.000000e-003" style="stop-color:#0C2B3D"/>
		<stop  offset="5.600001e-002" style="stop-color:#0B4253"/>
		<stop  offset="0.114" style="stop-color:#0B5464"/>
		<stop  offset="0.184" style="stop-color:#0A6071"/>
		<stop  offset="0.278" style="stop-color:#0A6778"/>
		<stop  offset="0.5" style="stop-color:#0A697A"/>
		<stop  offset="0.722" style="stop-color:#0A6778"/>
		<stop  offset="0.816" style="stop-color:#0A6071"/>
		<stop  offset="0.886" style="stop-color:#0B5464"/>
		<stop  offset="0.944" style="stop-color:#0B4253"/>
		<stop  offset="0.994" style="stop-color:#0C2B3D"/>
		<stop  offset="1" style="stop-color:#0D283A"/>
	</linearGradient>
	<path class="st5" d="M82.4,390.9c-1.6,0-3.2,0.1-4.7,0.1c0.7,1.2-0.6,3.6,0.2,4.9c0.5,0.8,3.5,1.2,4,2l0.6,0c0.2,0,0.6,0,0.8,0
		c0.5-0.8,0.8-2.1,1.3-2.9c0.8-1.3,1.7-2.8,2.4-4.1C85.5,390.9,83.8,390.9,82.4,390.9L82.4,390.9z"/>
	
		<linearGradient id="SVGID_4_" gradientUnits="userSpaceOnUse" x1="-1190.9907" y1="-275.761" x2="-1089.4817" y2="-111.072" gradientTransform="matrix(1 0 0 -1 1207.717 188.507)">
		<stop  offset="0" style="stop-color:#014251"/>
		<stop  offset="8.600000e-002" style="stop-color:#025262"/>
		<stop  offset="0.227" style="stop-color:#046676"/>
		<stop  offset="0.366" style="stop-color:#057183"/>
		<stop  offset="0.5" style="stop-color:#057587"/>
		<stop  offset="0.634" style="stop-color:#057183"/>
		<stop  offset="0.773" style="stop-color:#046676"/>
		<stop  offset="0.914" style="stop-color:#025262"/>
		<stop  offset="1" style="stop-color:#014251"/>
	</linearGradient>
	<path class="st6" d="M54.3,437.8c-4.9-0.3-9.6-3.2-14.1-3.7c-5-0.6-9.7-1.2-14.1-2c-3.9-0.6-7.5,1-10.9,0.3
		c-5.8,17.7-6.6,30.4-1,33.8C21.2,470.5,36.7,458.8,54.3,437.8L54.3,437.8z"/>
	<path class="st4" d="M136.2,312.3l-21-12.8L136.2,312.3"/>
	
		<linearGradient id="SVGID_5_" gradientUnits="userSpaceOnUse" x1="-1150.3591" y1="397.4966" x2="-1172.3732" y2="345.2416" gradientTransform="matrix(0.9258 -0.3779 -0.3779 -0.9258 1304.5471 232.5176)">
		<stop  offset="0" style="stop-color:#014251"/>
		<stop  offset="0.5" style="stop-color:#057587"/>
		<stop  offset="0.693" style="stop-color:#057384"/>
		<stop  offset="0.804" style="stop-color:#056B7C"/>
		<stop  offset="0.893" style="stop-color:#035E6E"/>
		<stop  offset="0.971" style="stop-color:#024B5B"/>
		<stop  offset="1" style="stop-color:#014251"/>
	</linearGradient>
	<path class="st7" d="M57.7,352.2c7.9-0.5,16.1-0.7,24.7-0.8c8.5,0,16.6,0.2,24.5,0.7c3.9-9.1,8.7-15.4,10.7-22.8
		c2.2-7.9,3.2-15.3,2.8-20.2c-0.3-4-3.1-8.2-5.3-9.6c-6.1-3.7-18.3,4.4-32.8,20c-7.9,8.5-16.4,19.3-25,31.7
		C57.4,351.4,57.7,352,57.7,352.2L57.7,352.2z"/>
	<path class="st8" d="M179.9,398.5l-0.1-24.6L179.9,398.5"/>
	
		<linearGradient id="SVGID_6_" gradientUnits="userSpaceOnUse" x1="-1258.4556" y1="346.5575" x2="-1227.1316" y2="413.0615" gradientTransform="matrix(0.9258 -0.3779 -0.3779 -0.9258 1304.5471 232.5176)">
		<stop  offset="0" style="stop-color:#0B5463"/>
		<stop  offset="7.000000e-002" style="stop-color:#0B6070"/>
		<stop  offset="0.216" style="stop-color:#0B7285"/>
		<stop  offset="0.361" style="stop-color:#0A7D91"/>
		<stop  offset="0.5" style="stop-color:#0A8195"/>
		<stop  offset="0.639" style="stop-color:#0A7D91"/>
		<stop  offset="0.783" style="stop-color:#0B7285"/>
		<stop  offset="0.93" style="stop-color:#0B6070"/>
		<stop  offset="1" style="stop-color:#0B5463"/>
	</linearGradient>
	<path class="st9" d="M32.2,394.2c-3.9-7.5-5.1-15.6-8-22.4c-2.3-5.4-6.5-9.6-8.2-14.5c-19.1,4.3-31,10.4-31,17.1
		c0,2.3,0.8,5.4,3.3,7.4c4.5,3.6,13.4,7,24.2,9.6C18.4,392.8,23.3,393.5,32.2,394.2z"/>
	
		<linearGradient id="SVGID_7_" gradientUnits="userSpaceOnUse" x1="-1125.1593" y1="283.7787" x2="-1093.8384" y2="350.2787" gradientTransform="matrix(0.9258 -0.3779 -0.3779 -0.9258 1304.5471 232.5176)">
		<stop  offset="0" style="stop-color:#0B5463"/>
		<stop  offset="7.000000e-002" style="stop-color:#0B6070"/>
		<stop  offset="0.216" style="stop-color:#0B7285"/>
		<stop  offset="0.361" style="stop-color:#0A7D91"/>
		<stop  offset="0.5" style="stop-color:#0A8195"/>
		<stop  offset="0.639" style="stop-color:#0A7D91"/>
		<stop  offset="0.783" style="stop-color:#0B7285"/>
		<stop  offset="0.93" style="stop-color:#0B6070"/>
		<stop  offset="1" style="stop-color:#0B5463"/>
	</linearGradient>
	<path class="st10" d="M132.5,394c2.7-0.4,5.6,1.2,8,0.7c4.7-0.8,10.4-1.6,14.4-2.6c16.5-4.2,25-12,25-18.2c0-6.7-12-12.7-31.1-16.9
		C145,367.8,139.5,380.5,132.5,394L132.5,394z"/>
	
		<linearGradient id="SVGID_8_" gradientUnits="userSpaceOnUse" x1="-1221.996" y1="-181.1964" x2="-1029.1179" y2="-181.1964" gradientTransform="matrix(1 0 0 -1 1207.717 188.507)">
		<stop  offset="0" style="stop-color:#0B5463"/>
		<stop  offset="1" style="stop-color:#0B5463"/>
	</linearGradient>
	<path class="st11" d="M57.6,350.4c2.7,6.3,3.7,13.9,7.2,20.8c3.3,6.4,7.7,13.2,13.1,18.7c1.5,0,3.1,0,4.6,0c1.4,0,2.8,0,4.2,0
		c8.2-13.9,15.1-27.4,20.4-39.6c-7.9-0.5-16.2-0.7-24.7-0.7C73.9,349.5,65.6,349.8,57.6,350.4L57.6,350.4z"/>
	
		<linearGradient id="SVGID_9_" gradientUnits="userSpaceOnUse" x1="-1193.4128" y1="315.9236" x2="-1162.0908" y2="382.4265" gradientTransform="matrix(0.9258 -0.3779 -0.3779 -0.9258 1304.5471 232.5176)">
		<stop  offset="0" style="stop-color:#0B5463"/>
		<stop  offset="7.000000e-002" style="stop-color:#0B6070"/>
		<stop  offset="0.216" style="stop-color:#0B7285"/>
		<stop  offset="0.361" style="stop-color:#0A7D91"/>
		<stop  offset="0.5" style="stop-color:#0A8195"/>
		<stop  offset="0.639" style="stop-color:#0A7D91"/>
		<stop  offset="0.783" style="stop-color:#0B7285"/>
		<stop  offset="0.93" style="stop-color:#0B6070"/>
		<stop  offset="1" style="stop-color:#0B5463"/>
	</linearGradient>
	<path class="st12" d="M57.5,351.7c2.7,6.3,3.7,13.9,7.2,20.8c3.3,6.4,7.7,13.2,13.1,18.7c1.5,0,3.1,0,4.6,0c1.4,0,2.8,0,4.2,0
		c8.2-13.9,15.1-27.4,20.4-39.6c-7.9-0.5-16.2-0.7-24.7-0.7C73.8,350.9,65.5,351.2,57.5,351.7L57.5,351.7z"/>
	
		<linearGradient id="SVGID_10_" gradientUnits="userSpaceOnUse" x1="-1083.6591" y1="-289.5047" x2="-1183.9341" y2="-123.3767" gradientTransform="matrix(1 0 0 -1 1207.717 188.507)">
		<stop  offset="0" style="stop-color:#096F80"/>
		<stop  offset="3.700000e-002" style="stop-color:#107A8A"/>
		<stop  offset="0.155" style="stop-color:#2497A5"/>
		<stop  offset="0.273" style="stop-color:#32ABB8"/>
		<stop  offset="0.388" style="stop-color:#3BB8C4"/>
		<stop  offset="0.5" style="stop-color:#3EBCC8"/>
		<stop  offset="0.612" style="stop-color:#3BB8C4"/>
		<stop  offset="0.728" style="stop-color:#32ABB8"/>
		<stop  offset="0.845" style="stop-color:#2497A5"/>
		<stop  offset="0.963" style="stop-color:#107A8A"/>
		<stop  offset="1" style="stop-color:#096F80"/>
	</linearGradient>
	<path class="st13" d="M111.2,437.1c-0.7,0.1-1.5-1.1-2.3-1c-0.7,0.1-1.4,1.3-2.2,1.3C98.7,449,90.7,459,83.3,467
		c14.5,15.7,26.8,23.7,32.8,20l14.3-8.7l20.6-12.5C143.9,470.2,128.8,458.3,111.2,437.1L111.2,437.1z"/>
	
		<linearGradient id="SVGID_11_" gradientUnits="userSpaceOnUse" x1="-1180.8986" y1="215.5556" x2="-1200.3406" y2="254.4406" gradientTransform="matrix(0.9258 -0.3779 -0.3779 -0.9258 1304.5471 232.5176)">
		<stop  offset="0" style="stop-color:#096F80"/>
		<stop  offset="6.000000e-003" style="stop-color:#097181"/>
		<stop  offset="9.099999e-002" style="stop-color:#0B8395"/>
		<stop  offset="0.188" style="stop-color:#0C8FA4"/>
		<stop  offset="0.305" style="stop-color:#0D97AC"/>
		<stop  offset="0.5" style="stop-color:#0D99AF"/>
		<stop  offset="0.695" style="stop-color:#0D97AC"/>
		<stop  offset="0.812" style="stop-color:#0C8FA4"/>
		<stop  offset="0.909" style="stop-color:#0B8395"/>
		<stop  offset="0.994" style="stop-color:#097181"/>
		<stop  offset="1" style="stop-color:#096F80"/>
	</linearGradient>
	<path class="st14" d="M110.2,437.7c-0.7,0.1-1.5-1.1-2.3-1c-0.7,0.1-1.4,1.3-2.2,1.3c-8.1,11.5-16.1,21.6-23.5,29.6
		c14.5,15.7,26.8,23.7,32.8,20.1l14.3-8.7l21.1-12.8C143.4,470.5,127.8,458.8,110.2,437.7L110.2,437.7z"/>
	
		<linearGradient id="SVGID_12_" gradientUnits="userSpaceOnUse" x1="-1217.3174" y1="407.4908" x2="-1184.9424" y2="179.8078" gradientTransform="matrix(0.9258 -0.3779 -0.3779 -0.9258 1304.5471 232.5176)">
		<stop  offset="0" style="stop-color:#096F80"/>
		<stop  offset="8.000000e-003" style="stop-color:#097181"/>
		<stop  offset="0.175" style="stop-color:#0C8395"/>
		<stop  offset="0.341" style="stop-color:#0E8EA2"/>
		<stop  offset="0.5" style="stop-color:#0F92A6"/>
		<stop  offset="0.659" style="stop-color:#0E8EA2"/>
		<stop  offset="0.825" style="stop-color:#0C8395"/>
		<stop  offset="0.992" style="stop-color:#097181"/>
		<stop  offset="1" style="stop-color:#096F80"/>
	</linearGradient>
	<path class="st15" d="M33.2,393.5c4.2,2.4,9.1,1.9,13.8,2.3c7.2,0.7,14.1,1.1,22,1.4c4.3,0.1,9.4,1,13.9,0.2
		c-0.5-0.8-1.4-2.3-1.9-3.1c-0.8-1.2-1.5-2.5-2.2-3.7c-8.2-13.9-15.1-27.3-20.3-39.5c-0.1-0.1-0.1-0.3-0.2-0.4
		c-11.5-26.8-15.6-47-8.3-51.4l-28.2,17.1l-6.7,4.1c-5.8,3.5-4.7,17.3,1.8,36.3C20.7,367.5,26.3,380.1,33.2,393.5L33.2,393.5z"/>
	
		<linearGradient id="SVGID_13_" gradientUnits="userSpaceOnUse" x1="-1219.4379" y1="318.3221" x2="-1211.2069" y2="409.052" gradientTransform="matrix(0.9258 -0.3779 -0.3779 -0.9258 1304.5471 232.5176)">
		<stop  offset="0" style="stop-color:#096F80"/>
		<stop  offset="6.000000e-003" style="stop-color:#097181"/>
		<stop  offset="9.099999e-002" style="stop-color:#0B8395"/>
		<stop  offset="0.188" style="stop-color:#0C8FA4"/>
		<stop  offset="0.305" style="stop-color:#0D97AC"/>
		<stop  offset="0.5" style="stop-color:#0D99AF"/>
		<stop  offset="0.695" style="stop-color:#0D97AC"/>
		<stop  offset="0.812" style="stop-color:#0C8FA4"/>
		<stop  offset="0.909" style="stop-color:#0B8395"/>
		<stop  offset="0.994" style="stop-color:#097181"/>
		<stop  offset="1" style="stop-color:#096F80"/>
	</linearGradient>
	<path class="st16" d="M32.2,394.2c4.2,2.4,9.1,1.9,13.8,2.3c7.2,0.7,14.1,1.1,22,1.4c4.3,0.1,9,0.4,13.5-0.5
		c-0.5-0.8-1-1.6-1.5-2.4c-0.8-1.2-1.5-2.5-2.2-3.7c-8.2-13.9-15.1-27.3-20.3-39.5c-0.1-0.1-0.1-0.3-0.2-0.4
		c-11.5-26.8-15.2-47.3-7.8-51.7l-28.7,17.4l-6.7,4.1c-5.8,3.5-4.7,17.3,1.8,36.3C19.7,368.2,25.2,380.8,32.2,394.2L32.2,394.2z"/>
	
		<linearGradient id="SVGID_14_" gradientUnits="userSpaceOnUse" x1="-1222.4091" y1="-216.3705" x2="-1029.5609" y2="-216.3705" gradientTransform="matrix(1 0 0 -1 1207.717 188.507)">
		<stop  offset="0" style="stop-color:#057B8F"/>
		<stop  offset="1.800000e-002" style="stop-color:#0A8093"/>
		<stop  offset="0.141" style="stop-color:#279AAD"/>
		<stop  offset="0.263" style="stop-color:#3BAEBF"/>
		<stop  offset="0.384" style="stop-color:#48B9CA"/>
		<stop  offset="0.5" style="stop-color:#4CBDCE"/>
		<stop  offset="0.616" style="stop-color:#48B9CA"/>
		<stop  offset="0.737" style="stop-color:#3BAEBF"/>
		<stop  offset="0.859" style="stop-color:#279AAD"/>
		<stop  offset="0.982" style="stop-color:#0A8093"/>
		<stop  offset="1" style="stop-color:#057B8F"/>
	</linearGradient>
	<path class="st17" d="M83,396.2l-0.5,0c-0.3,0-0.6,0-0.9,0c-20.5,0-36.6-1.4-49.4-3.2C3.9,389-15,381.6-15,373.2l0.1,33.5l0,7.8
		c0,6.6,11.6,12.5,30,16.7c10.9,2.5,24.3,4.3,39.1,5.4C63.6,425.4,73.5,411.6,83,396.2L83,396.2z"/>
	
		<linearGradient id="SVGID_15_" gradientUnits="userSpaceOnUse" x1="-1221.6256" y1="292.6395" x2="-1279.0247" y2="356.6225" gradientTransform="matrix(0.9258 -0.3779 -0.3779 -0.9258 1304.5471 232.5176)">
		<stop  offset="0" style="stop-color:#057B8F"/>
		<stop  offset="8.199999e-002" style="stop-color:#038DA1"/>
		<stop  offset="0.181" style="stop-color:#029AB0"/>
		<stop  offset="0.301" style="stop-color:#01A2B8"/>
		<stop  offset="0.5" style="stop-color:#01A4BB"/>
		<stop  offset="0.699" style="stop-color:#01A2B8"/>
		<stop  offset="0.819" style="stop-color:#029AB0"/>
		<stop  offset="0.918" style="stop-color:#038DA1"/>
		<stop  offset="1" style="stop-color:#057B8F"/>
	</linearGradient>
	<path class="st18" d="M83,397.4c-0.2,0-0.3,0-0.5,0c-0.3,0-0.6,0-0.9,0c-20.5,0-36.6-1.4-49.4-3.2c-28.3-4-47.2-11.4-47.2-19.8
		l0.1,33.5l0,7.8c0,6.6,11.5,12.5,30,16.7c10.9,2.5,24.3,4.3,39.1,5.4C63.6,426.6,73.5,412.9,83,397.4L83,397.4z"/>
	
		<linearGradient id="SVGID_16_" gradientUnits="userSpaceOnUse" x1="-1029.839" y1="-216.3455" x2="-1223.593" y2="-216.3455" gradientTransform="matrix(1 0 0 -1 1207.717 188.507)">
		<stop  offset="0" style="stop-color:#057B8F"/>
		<stop  offset="3.100000e-002" style="stop-color:#0E8397"/>
		<stop  offset="0.151" style="stop-color:#2B9EB1"/>
		<stop  offset="0.27" style="stop-color:#3FB2C4"/>
		<stop  offset="0.387" style="stop-color:#4CBECF"/>
		<stop  offset="0.5" style="stop-color:#50C1D3"/>
		<stop  offset="0.613" style="stop-color:#4CBECF"/>
		<stop  offset="0.73" style="stop-color:#3FB2C4"/>
		<stop  offset="0.849" style="stop-color:#2B9EB1"/>
		<stop  offset="0.969" style="stop-color:#0E8397"/>
		<stop  offset="1" style="stop-color:#057B8F"/>
	</linearGradient>
	<path class="st19" d="M179.9,372.8c0,8.5-19,16-47.4,20.1c-3.8,7.3-8,14.8-12.6,22.4c-4.6,7.6-9.4,14.9-14.1,21.6
		c1.5-0.1,3-0.2,4.4-0.3c14.8-1.1,28.2-3,39.2-5.5c18.8-4.3,30.6-10.3,30.6-17l0-16.7L179.9,372.8L179.9,372.8z"/>
	
		<linearGradient id="SVGID_17_" gradientUnits="userSpaceOnUse" x1="-1106.4513" y1="259.2375" x2="-1159.8364" y2="288.8615" gradientTransform="matrix(0.9258 -0.3779 -0.3779 -0.9258 1304.5471 232.5176)">
		<stop  offset="0" style="stop-color:#057B8F"/>
		<stop  offset="8.199999e-002" style="stop-color:#038DA1"/>
		<stop  offset="0.181" style="stop-color:#029AB0"/>
		<stop  offset="0.301" style="stop-color:#01A2B8"/>
		<stop  offset="0.5" style="stop-color:#01A4BB"/>
		<stop  offset="0.699" style="stop-color:#01A2B8"/>
		<stop  offset="0.819" style="stop-color:#029AB0"/>
		<stop  offset="0.918" style="stop-color:#038DA1"/>
		<stop  offset="1" style="stop-color:#057B8F"/>
	</linearGradient>
	<path class="st20" d="M179.9,373.9c0,8.5-19,15.9-47.4,20.1c-3.8,7.3-8,14.8-12.6,22.4c-4.6,7.6-9.4,14.9-14.1,21.6
		c1.5-0.1,3-0.2,4.4-0.3c14.8-1.1,28.2-3,39.2-5.5c18.8-4.3,30.6-10.3,30.6-17l0-16.7L179.9,373.9L179.9,373.9z"/>
	
		<linearGradient id="SVGID_18_" gradientUnits="userSpaceOnUse" x1="-1150.3704" y1="-249.805" x2="-1113.0544" y2="-187.946" gradientTransform="matrix(1 0 0 -1 1207.717 188.507)">
		<stop  offset="0" style="stop-color:#0B879A"/>
		<stop  offset="9.099999e-002" style="stop-color:#0B7789"/>
		<stop  offset="0.23" style="stop-color:#0B6474"/>
		<stop  offset="0.367" style="stop-color:#0B5868"/>
		<stop  offset="0.5" style="stop-color:#0B5463"/>
		<stop  offset="0.633" style="stop-color:#0B5868"/>
		<stop  offset="0.77" style="stop-color:#0B6474"/>
		<stop  offset="0.909" style="stop-color:#0B7789"/>
		<stop  offset="1" style="stop-color:#0B879A"/>
	</linearGradient>
	<path class="st21" d="M95.3,378.4c-2.4,4.5-5,9-7.7,13.5c-0.7,1.2-1.5,2.5-2.2,3.7c-0.5,0.8-1,1.6-1.5,2.4
		c-9.5,15.5-19.4,29.3-28.7,40.4l-0.6,0.7"/>
	
		<linearGradient id="SVGID_19_" gradientUnits="userSpaceOnUse" x1="-1121.6733" y1="-279.3687" x2="-1074.6023" y2="-201.3387" gradientTransform="matrix(1 0 0 -1 1207.717 188.507)">
		<stop  offset="0" style="stop-color:#0B5463"/>
		<stop  offset="1" style="stop-color:#0B5463"/>
	</linearGradient>
	<path class="st22" d="M83.6,469.1c7.4-8,15.2-18.2,23.2-29.7c4.7-6.8,18.9-28.1,28.3-46.8l-3.2,0.3l-50.1,74.3L83.6,469.1
		L83.6,469.1z"/>
	
		<linearGradient id="SVGID_20_" gradientUnits="userSpaceOnUse" x1="-1164.9076" y1="-291.5974" x2="-1065.2216" y2="-126.3474" gradientTransform="matrix(1 0 0 -1 1207.717 188.507)">
		<stop  offset="0" style="stop-color:#0B879A"/>
		<stop  offset="8.199999e-002" style="stop-color:#379FB2"/>
		<stop  offset="0.168" style="stop-color:#5CB4C7"/>
		<stop  offset="0.253" style="stop-color:#79C5D7"/>
		<stop  offset="0.337" style="stop-color:#8DD1E3"/>
		<stop  offset="0.42" style="stop-color:#9AD8EA"/>
		<stop  offset="0.5" style="stop-color:#9EDAEC"/>
		<stop  offset="0.58" style="stop-color:#9AD8EA"/>
		<stop  offset="0.663" style="stop-color:#8DD1E3"/>
		<stop  offset="0.747" style="stop-color:#79C5D7"/>
		<stop  offset="0.833" style="stop-color:#5CB4C7"/>
		<stop  offset="0.918" style="stop-color:#379FB2"/>
		<stop  offset="1" style="stop-color:#0B879A"/>
	</linearGradient>
	<path class="st23" d="M118.6,415.9c4.6-7.6,8.8-15.1,12.6-22.4c7-13.5,12.5-26.1,16.3-37c6.4-18.8,7.5-32.4,1.7-35.9l-14.3-8.7
		l-20.1-12.4c7.4,4.5,2.7,24.7-8.9,51.6c-5.3,12.2-12.2,25.7-20.4,39.6c-0.7,1.2-1.5,2.5-2.2,3.7c-0.5,0.8-1,1.6-1.5,2.4
		c-9.5,15.5-19.4,29.3-28.7,40.4c-17.6,21-31.9,33.2-39,28.9l27.5,16.9l6.7,4.1c6.1,3.7,18.3-4.4,32.8-20.1
		c7.4-8,15.4-18.1,23.5-29.6C109.3,430.8,114,423.5,118.6,415.9L118.6,415.9z"/>
	
		<linearGradient id="SVGID_21_" gradientUnits="userSpaceOnUse" x1="-1164.2836" y1="-291.758" x2="-1064.6006" y2="-126.732" gradientTransform="matrix(1 0 0 -1 1207.717 188.507)">
		<stop  offset="0" style="stop-color:#0B879A"/>
		<stop  offset="3.800000e-002" style="stop-color:#1694A7"/>
		<stop  offset="0.118" style="stop-color:#26A8BA"/>
		<stop  offset="0.208" style="stop-color:#32B6C8"/>
		<stop  offset="0.318" style="stop-color:#39BED1"/>
		<stop  offset="0.5" style="stop-color:#3BC1D3"/>
		<stop  offset="0.682" style="stop-color:#39BED1"/>
		<stop  offset="0.792" style="stop-color:#32B6C8"/>
		<stop  offset="0.882" style="stop-color:#26A8BA"/>
		<stop  offset="0.962" style="stop-color:#1694A7"/>
		<stop  offset="1" style="stop-color:#0B879A"/>
	</linearGradient>
	<path class="st24" d="M82.3,467.6c7.4-8,15.4-18.1,23.5-29.6c4.7-6.7,9.5-14,14.1-21.6c4.6-7.6,8.8-15.1,12.6-22.4
		c7-13.5,12.5-26.1,16.3-37c6.4-18.8,7.5-32.4,1.7-35.9l-14.3-8.7l-21-12.8c7.4,4.5,3.6,25.1-8,52c-5.3,12.2-12.2,25.7-20.4,39.6
		c-0.7,1.2-1.5,2.5-2.2,3.7c-0.5,0.8-1,1.6-1.5,2.4c-9.5,15.5-19.4,29.3-28.7,40.4c-17.6,21-33.1,32.7-40.2,28.4l28.7,17.4l6.7,4.1
		C55.5,491.3,67.8,483.3,82.3,467.6L82.3,467.6z"/>
	
		<linearGradient id="SVGID_22_" gradientUnits="userSpaceOnUse" x1="-1181.1503" y1="259.3324" x2="-1202.0634" y2="267.8104" gradientTransform="matrix(0.9258 -0.3779 -0.3779 -0.9258 1304.5471 232.5176)">
		<stop  offset="0" style="stop-color:#0B5463"/>
		<stop  offset="1" style="stop-color:#0B5463"/>
	</linearGradient>
	<path class="st25" d="M113,439.3c0,0-6.7,0.7-8.6,0.6l1.4-2c0,0,3.6-0.2,5.9-0.4L113,439.3L113,439.3z"/>
	
		<linearGradient id="SVGID_23_" gradientUnits="userSpaceOnUse" x1="-1197.0115" y1="360.8705" x2="-1166.2064" y2="383.9445" gradientTransform="matrix(0.9258 -0.3779 -0.3779 -0.9258 1304.5471 232.5176)">
		<stop  offset="0" style="stop-color:#0B5463"/>
		<stop  offset="1" style="stop-color:#0B5463"/>
	</linearGradient>
	<path class="st26" d="M82.3,319.6l-0.8-0.9c0,0-11.8,12.8-23.9,30l0.6,1.5C58.2,350.1,69.6,333.5,82.3,319.6L82.3,319.6z"/>
</g>
</svg>
